<svg xmlns="http://www.w3.org/2000/svg" viewBox="0 0 24 24" fill="none">
  <path d="M16.84 11.86a3.87 3.87 0 0 1-1.18 2.8 3.87 3.87 0 0 1-2.8 1.18h-1.72a3.87 3.87 0 0 1-2.8-1.18 3.87 3.87 0 0 1-1.18-2.8 3.87 3.87 0 0 1 1.18-2.8 3.87 3.87 0 0 1 2.8-1.18h1.72a3.87 3.87 0 0 1 2.8 1.18 3.87 3.87 0 0 1 1.18 2.8z" fill="#006BFF"/>
  <path d="M19.5 3h-15A1.5 1.5 0 0 0 3 4.5v15A1.5 1.5 0 0 0 4.5 21h15a1.5 1.5 0 0 0 1.5-1.5v-15A1.5 1.5 0 0 0 19.5 3zm-3.84 12.02a4.94 4.94 0 0 1-3.52 1.46h-1.72a4.94 4.94 0 0 1-3.52-1.46 4.94 4.94 0 0 1-1.46-3.52V11.5a4.94 4.94 0 0 1 1.46-3.52 4.94 4.94 0 0 1 3.52-1.46h1.72a4.94 4.94 0 0 1 3.52 1.46 4.94 4.94 0 0 1 1.46 3.52v.5a4.94 4.94 0 0 1-1.46 3.52z" fill="#0069FF"/>
</svg>
